<svg width="134" height="134" viewBox="0 0 134 134" fill="none" xmlns="http://www.w3.org/2000/svg">
<g clip-path="url(#clip0_127_12)">
<path d="M110.349 19.6948C110.349 19.6948 106.055 19.6948 100.768 19.6948L23.5063 19.6949C23.5063 19.6949 23.5063 23.9788 23.5063 29.2545C23.5063 34.5303 23.5063 38.8141 23.5063 38.8141L77.6928 38.793L12.8044 103.537C12.8044 103.537 15.7595 106.624 19.5031 110.359C23.2466 114.094 26.3404 117.043 26.3404 117.043L91.2077 52.32L91.2288 106.344C91.2288 106.344 95.5223 106.344 100.81 106.344C106.097 106.344 110.391 106.344 110.391 106.344L110.391 29.2545L110.349 19.6948Z" fill="black"/>
</g>
<defs>
<clipPath id="clip0_127_12">
<rect width="134" height="134" fill="white"/>
</clipPath>
</defs>
</svg>
