<svg width="50" height="50" viewBox="0 0 50 50" fill="none" xmlns="http://www.w3.org/2000/svg">
<path fill-rule="evenodd" clip-rule="evenodd" d="M8.8636 12.1841H14.3914C14.7004 12.1841 14.9523 12.436 14.9523 12.745V14.3628C14.9523 14.6718 14.7003 14.9238 14.3914 14.9238H9.48386C9.26691 14.9238 9.08947 15.1013 9.08947 15.3182V17.054C9.08947 17.271 9.26698 17.4484 9.48386 17.4484H14.3914C14.7004 17.4484 14.9523 17.7003 14.9523 18.0093V19.6226C14.9523 19.9315 14.7003 20.1834 14.3914 20.1834H9.48386C9.26691 20.1834 9.08947 20.3609 9.08947 20.5778V22.3137C9.08947 22.5306 9.26698 22.7081 9.48386 22.7081H14.3914C14.7004 22.7081 14.9523 22.96 14.9523 23.269V24.8822C14.9523 25.1912 14.7003 25.4431 14.3914 25.4431H9.48386C9.26691 25.4431 9.08947 25.6206 9.08947 25.8375V27.5734C9.08947 27.7903 9.26698 27.9678 9.48386 27.9678H14.3914C14.7004 27.9678 14.9523 28.2197 14.9523 28.5287V30.142C14.9523 30.451 14.7003 30.7029 14.3914 30.7029H9.48386C9.26691 30.7029 9.08947 30.8804 9.08947 31.0973V32.8332C9.08947 33.0501 9.26698 33.2276 9.48386 33.2276H14.3914C14.7004 33.2276 14.9523 33.4795 14.9523 33.7885V40.906H7.54923C7.2402 40.906 6.98828 40.6541 6.98828 40.3451V14.0593C6.98828 13.0278 7.83228 12.1841 8.8636 12.1841Z" fill="#494949"/>
<path fill-rule="evenodd" clip-rule="evenodd" d="M18.4961 5H31.387C32.4741 5 33.3635 5.88932 33.3635 6.97646V40.3456C33.3635 40.6545 33.1116 40.9065 32.8026 40.9065H29.3337C29.0247 40.9065 28.7728 40.6546 28.7728 40.3456V33.9244C28.7728 33.5772 28.4887 33.2933 28.1417 33.2933H21.7414C21.3942 33.2933 21.1103 33.5772 21.1103 33.9244V40.3456C21.1103 40.6545 20.8584 40.9065 20.5494 40.9065H17.0805C16.7715 40.9065 16.5195 40.6546 16.5195 40.3456V6.97653C16.5197 5.88932 17.4091 5 18.4961 5ZM20.0907 8.23049H22.6158C22.9633 8.23049 23.2472 8.45518 23.2472 8.73014V13.0696C23.2472 13.3445 22.9633 13.5693 22.6158 13.5693H20.0907C19.7433 13.5693 19.4594 13.3445 19.4594 13.0696V8.73014C19.4594 8.45518 19.7433 8.23049 20.0907 8.23049ZM27.2674 8.23049H29.7925C30.1399 8.23049 30.4238 8.45518 30.4238 8.73014V13.0696C30.4238 13.3445 30.1399 13.5693 29.7925 13.5693H27.2674C26.9199 13.5693 26.636 13.3445 26.636 13.0696V8.73014C26.636 8.45518 26.9199 8.23049 27.2674 8.23049ZM27.2674 24.0891H29.7925C30.1399 24.0891 30.4238 24.3138 30.4238 24.5888V28.9283C30.4238 29.2032 30.1399 29.4279 29.7925 29.4279H27.2674C26.9199 29.4279 26.636 29.2032 26.636 28.9283V24.5888C26.636 24.3138 26.9199 24.0891 27.2674 24.0891ZM27.2674 16.1598H29.7925C30.1399 16.1598 30.4238 16.3845 30.4238 16.6595V20.9989C30.4238 21.2739 30.1399 21.4986 29.7925 21.4986H27.2674C26.9199 21.4986 26.636 21.2739 26.636 20.9989V16.6595C26.636 16.3845 26.9199 16.1598 27.2674 16.1598ZM20.0907 24.0891H22.6158C22.9633 24.0891 23.2472 24.3138 23.2472 24.5888V28.9283C23.2472 29.2032 22.9633 29.4279 22.6158 29.4279H20.0907C19.7433 29.4279 19.4594 29.2032 19.4594 28.9283V24.5888C19.4594 24.3138 19.7433 24.0891 20.0907 24.0891ZM20.0907 16.1598H22.6158C22.9633 16.1598 23.2472 16.3845 23.2472 16.6595V20.9989C23.2472 21.2739 22.9633 21.4986 22.6158 21.4986H20.0907C19.7433 21.4986 19.4594 21.2739 19.4594 20.9989V16.6595C19.4594 16.3845 19.7433 16.1598 20.0907 16.1598Z" fill="#494949"/>
<path fill-rule="evenodd" clip-rule="evenodd" d="M41.0193 12.1841H35.4916C35.1825 12.1841 34.9307 12.436 34.9307 12.745V14.3628C34.9307 14.6718 35.1826 14.9238 35.4916 14.9238H40.3991C40.6159 14.9238 40.7935 15.1013 40.7935 15.3182V17.054C40.7935 17.271 40.6159 17.4484 40.3991 17.4484H35.4916C35.1825 17.4484 34.9307 17.7003 34.9307 18.0093V19.6226C34.9307 19.9315 35.1826 20.1834 35.4916 20.1834H40.3991C40.6159 20.1834 40.7935 20.3609 40.7935 20.5778V22.3137C40.7935 22.5306 40.6159 22.7081 40.3991 22.7081H35.4916C35.1825 22.7081 34.9307 22.96 34.9307 23.269V24.8822C34.9307 25.1912 35.1826 25.4431 35.4916 25.4431H40.3991C40.6159 25.4431 40.7935 25.6206 40.7935 25.8375V27.5734C40.7935 27.7903 40.6159 27.9678 40.3991 27.9678H35.4916C35.1825 27.9678 34.9307 28.2197 34.9307 28.5287V30.142C34.9307 30.451 35.1826 30.7029 35.4916 30.7029H40.3991C40.6159 30.7029 40.7935 30.8804 40.7935 31.0973V32.8332C40.7935 33.0501 40.6159 33.2276 40.3991 33.2276H35.4916C35.1825 33.2276 34.9307 33.4795 34.9307 33.7885V40.906H42.3338C42.6428 40.906 42.8947 40.6541 42.8947 40.3451V14.0593C42.8946 13.0278 42.0507 12.1841 41.0193 12.1841Z" fill="#494949"/>
<path fill-rule="evenodd" clip-rule="evenodd" d="M4.18848 40.877H45.6947C46.3484 40.877 46.8832 41.4118 46.8832 42.0654V43.8117C46.8832 44.4654 46.3484 45.0002 45.6947 45.0002H4.18848C3.53483 45.0002 3 44.4654 3 43.8117V42.0654C3 41.4118 3.53483 40.877 4.18848 40.877Z" fill="#494949"/>
</svg>
