<svg width="50" height="50" viewBox="0 0 50 50" fill="none" xmlns="http://www.w3.org/2000/svg">
<path fill-rule="evenodd" clip-rule="evenodd" d="M30.5471 7.75139C35.5243 9.2042 39.1885 13.8207 39.1885 19.2511V23.6499C39.1885 24.1611 38.7701 24.5795 38.2589 24.5795H29.8002C29.5266 24.5795 29.2938 24.4137 29.2045 24.155C29.1152 23.8964 29.1961 23.6222 29.4116 23.4534C31.2163 22.0394 32.3764 19.8401 32.3764 17.37C32.3764 15.2143 31.4822 13.1861 29.9392 11.7384C29.8077 11.615 29.7401 11.4595 29.7401 11.2791V8.35638C29.7401 8.15145 29.8286 7.97513 29.9924 7.8522C30.1563 7.72926 30.3505 7.69407 30.5471 7.75139ZM19.5037 24.5796H11.0449C10.5337 24.5796 10.1152 24.1614 10.1152 23.65V19.2511C10.1152 13.8202 13.7796 9.20438 18.7568 7.75145C18.9536 7.69413 19.1474 7.72932 19.3115 7.8522C19.4755 7.97513 19.5638 8.1517 19.5638 8.35638V11.2791C19.5638 11.4594 19.4962 11.615 19.3648 11.7384C17.8218 13.1861 16.9275 15.2143 16.9275 17.37C16.9275 19.8401 18.0877 22.0394 19.8924 23.4534C20.1078 23.6222 20.1888 23.8964 20.0995 24.155C20.0101 24.4138 19.7773 24.5796 19.5037 24.5796Z" fill="#494949"/>
<path fill-rule="evenodd" clip-rule="evenodd" d="M28.1394 12.3368C29.7323 13.4424 30.7757 15.2842 30.7757 17.3702C30.7757 20.7517 28.0345 23.4929 24.653 23.4929C21.2715 23.4929 18.5303 20.7517 18.5303 17.3702C18.5303 15.2842 19.5737 13.4424 21.1666 12.3368V6.59537C21.1666 5.71794 21.8845 5 22.762 5H26.5441C27.4215 5 28.1394 5.71806 28.1394 6.59537V12.3368H28.1394Z" fill="#494949"/>
<path fill-rule="evenodd" clip-rule="evenodd" d="M9.47694 25.6133H39.8278C40.6402 25.6133 41.3046 26.2379 41.3046 27.0021C41.3046 27.7663 40.6404 28.3911 39.8278 28.3911H36.9846C34.9109 28.3911 31.4634 30.031 24.6524 30.031C17.8415 30.031 14.9909 28.3911 12.3202 28.3911H9.47687C8.66444 28.3911 8 27.7665 8 27.0023C8.00006 26.2381 8.66431 25.6133 9.47694 25.6133Z" fill="#494949"/>
<path fill-rule="evenodd" clip-rule="evenodd" d="M24.6525 13.2715C26.9161 13.2715 28.7511 15.1065 28.7511 17.3702C28.7511 19.6338 26.9161 21.4689 24.6525 21.4689C22.3888 21.4689 20.5537 19.6339 20.5537 17.3702C20.5538 15.1065 22.3888 13.2715 24.6525 13.2715Z" fill="white"/>
<path fill-rule="evenodd" clip-rule="evenodd" d="M38.7006 30.917C39.1036 31.784 39.7426 32.5195 40.5346 33.0405C40.8326 33.2363 40.9591 33.5941 40.8503 33.9335C40.5591 34.8453 40.1939 35.724 39.7601 36.5613C39.5964 36.8778 39.255 37.0403 38.9063 36.9686C37.2767 36.633 35.5149 37.0966 34.2503 38.3618C32.9862 39.6262 32.5221 41.3883 32.858 43.0176C32.9295 43.367 32.7668 43.7081 32.45 43.8717C31.6126 44.3051 30.734 44.6705 29.8228 44.9615C29.483 45.0699 29.126 44.9438 28.9298 44.646C28.0151 43.2555 26.4409 42.3373 24.652 42.3373C22.8633 42.3373 21.2889 43.2555 20.3741 44.6456C20.1782 44.9437 19.821 45.0698 19.4818 44.9615C18.5702 44.6706 17.6914 44.3051 16.854 43.8717C16.5373 43.7081 16.3745 43.367 16.4463 43.0176C16.7827 41.388 16.3183 39.6262 15.0537 38.3618C13.7889 37.0966 12.0271 36.633 10.3977 36.9686C10.049 37.0403 9.70769 36.8778 9.54387 36.5613C9.11006 35.7237 8.74419 34.8452 8.45325 33.9335C8.34513 33.5937 8.47144 33.2365 8.76919 33.0405C9.56162 32.5193 10.2005 31.7838 10.6036 30.9168C10.8542 30.3779 11.3629 30.0533 11.9573 30.0533H12.32C12.8649 30.0533 13.4772 30.1426 14.0994 30.2662C14.6682 30.3793 15.0955 30.7776 15.2482 31.3371C16.3772 35.4713 20.1599 38.5106 24.6521 38.5106C29.1217 38.5106 32.8881 35.502 34.038 31.3999C34.1908 30.855 34.6021 30.4663 35.1548 30.3448C35.2653 30.3205 35.3761 30.2963 35.4868 30.2728C35.9503 30.1742 36.5098 30.0532 36.9844 30.0532H37.3469C37.9414 30.0532 38.4501 30.3778 38.7006 30.917Z" fill="#494949"/>
</svg>
