<svg width="200" height="200" viewBox="0 0 200 200" fill="none" xmlns="http://www.w3.org/2000/svg">
<path d="M116.268 123.91C115.597 123.91 115.012 123.529 114.722 122.968C114.644 122.935 114.56 122.902 114.488 122.872C113.665 122.54 112.289 121.984 111.019 120.592C107.924 117.196 106.507 112.897 107.03 108.488C107.143 107.533 108.015 106.852 108.963 106.965C109.917 107.078 110.599 107.943 110.486 108.897C110.201 111.296 110.51 114.866 113.591 118.247C114.326 119.054 115.104 119.369 115.791 119.646C116.557 119.956 117.982 120.531 118.008 122.142C118.023 123.103 117.257 123.894 116.296 123.909C116.287 123.91 116.277 123.91 116.268 123.91Z" fill="white"/>
<path d="M83.7331 123.891C83.7234 123.891 83.7138 123.891 83.7041 123.891C82.7432 123.875 81.9769 123.083 81.9927 122.122C82.0197 120.511 83.4464 119.936 84.2127 119.627C84.8996 119.351 85.6782 119.037 86.4145 118.231C89.4819 114.873 89.8047 111.324 89.5353 108.938C89.4279 107.983 90.1143 107.121 91.069 107.014C92.0258 106.906 92.8853 107.592 92.9933 108.547C93.4882 112.933 92.064 117.206 88.9834 120.578C87.7124 121.97 86.3351 122.524 85.5127 122.855C85.4404 122.884 85.3564 122.918 85.2785 122.95C84.9888 123.51 84.4037 123.891 83.7331 123.891Z" fill="white"/>
<path d="M132.193 160.376C135.336 159.48 136.033 128.932 126.921 123.146C125.037 121.95 124.326 122.822 120.653 121.601L114.773 118.73C112.245 117.03 110.913 115.423 109.747 114.953L109.74 114.971C110.112 116.154 110.312 117.414 110.312 118.721C110.308 124.878 105.852 127.272 100.012 128.235C94.1731 127.266 89.7187 124.867 89.7222 118.71C89.7228 117.403 89.9249 116.143 90.2982 114.96L90.291 114.943C89.0119 115.456 87.5317 117.337 84.4923 119.208L80.0313 121.351C75.7811 122.901 75.1003 121.855 73.1088 123.117C63.9902 128.893 64.6532 159.441 67.7954 160.341L132.193 160.376Z" fill="white"/>
<path d="M119.014 95.2495C118.834 94.4312 118.581 93.3558 117.691 92.9816C117.542 92.9189 117.391 92.8828 117.239 92.8665C117.756 89.4065 117.43 85.6543 117.008 81.8496C116.58 77.9909 114.409 75.1242 112.116 74.6654C109.714 74.1847 109.215 74.063 107.683 73.1368C105.449 71.7854 99.6199 69.9442 97.5948 69.6213C93.7871 69.0139 88.5765 71.15 87.0479 72.6785C86.2913 73.4357 91.1749 73.1373 86.7877 76.7287C83.6837 79.27 81.7197 86.4293 82.7244 92.8706C82.5853 92.8889 82.4463 92.9245 82.3094 92.9821C81.4193 93.3568 81.1662 94.4318 80.986 95.25C80.0628 99.4463 83.1745 103.014 83.8212 103.756C85.032 105.144 85.6115 105.152 85.9002 105.079C86.2067 105.001 86.4374 104.767 86.6085 104.496C90.4437 111.46 97.106 116.199 99.989 116.201C102.793 116.202 109.51 111.454 113.377 104.475C113.549 104.755 113.784 105 114.098 105.079C114.387 105.153 114.967 105.145 116.177 103.757C116.825 103.014 119.937 99.4458 119.014 95.2495ZM106.243 108.59C103.435 111.785 100.754 113.161 99.9819 113.349C99.2141 113.172 96.5418 111.819 93.7377 108.619C92.0039 106.641 89.0954 102.598 89.0984 97.7507C89.101 93.1242 90.5007 89.1514 93.0492 86.5057C93.4673 86.6503 94.0977 86.9497 94.5514 87.1651C96.0438 87.8744 97.9014 88.7568 100.068 88.7578C102.3 88.7578 104.129 87.799 105.598 87.0286C105.959 86.8397 106.447 86.5836 106.809 86.4283C109.419 89.0572 110.905 93.1527 110.903 97.7629C110.899 102.576 107.982 106.613 106.243 108.59Z" fill="white"/>
<path d="M58.0045 87.829L60.025 91.9234C60.1304 92.1372 60.3346 92.2854 60.5703 92.3195L65.0889 92.9759C65.6832 93.0619 65.9199 93.7921 65.4902 94.2112L62.2207 97.3982C62.0501 97.5647 61.9721 97.804 62.0124 98.0393L62.7843 102.54C62.8857 103.131 62.2649 103.582 61.7333 103.303L57.6919 101.178C57.4811 101.067 57.229 101.067 57.0177 101.178L52.9762 103.303C52.4452 103.582 51.8239 103.131 51.9253 102.54L52.6972 98.0393C52.7375 97.8045 52.6595 97.5647 52.489 97.3982L49.2194 94.2112C48.7897 93.7921 49.0269 93.0625 49.6207 92.9759L54.1392 92.3195C54.375 92.2854 54.5792 92.1372 54.6846 91.9234L56.7051 87.829C56.9714 87.2907 57.7387 87.2907 58.0045 87.829Z" fill="white"/>
<path d="M143.295 87.829L145.315 91.9234C145.421 92.1372 145.625 92.2854 145.861 92.3195L150.379 92.9759C150.973 93.0619 151.21 93.7921 150.78 94.2112L147.511 97.3982C147.34 97.5647 147.262 97.804 147.303 98.0393L148.075 102.54C148.176 103.131 147.555 103.582 147.024 103.303L142.982 101.178C142.771 101.067 142.519 101.067 142.308 101.178L138.267 103.303C137.735 103.582 137.114 103.131 137.216 102.54L137.988 98.0393C138.028 97.8045 137.95 97.5647 137.779 97.3982L134.51 94.2112C134.08 93.7921 134.317 93.0625 134.911 92.9759L139.43 92.3195C139.665 92.2854 139.869 92.1372 139.975 91.9234L141.996 87.829C142.262 87.2907 143.03 87.2907 143.295 87.829Z" fill="white"/>
<path d="M69.5724 57.4405L71.5928 61.535C71.6983 61.7488 71.9025 61.897 72.1382 61.9311L76.6568 62.5875C77.251 62.6735 77.4878 63.4037 77.058 63.8227L73.7885 67.0098C73.6179 67.1763 73.54 67.4156 73.5802 67.6509L74.3522 72.1511C74.4535 72.7428 73.8328 73.1939 73.3012 72.9144L69.2597 70.7895C69.0489 70.6785 68.7969 70.6785 68.5856 70.7895L64.5441 72.9144C64.013 73.1939 63.3918 72.7428 63.4931 72.1511L64.2651 67.6509C64.3053 67.4161 64.2274 67.1763 64.0568 67.0098L60.7873 63.8227C60.3575 63.4037 60.5948 62.674 61.1885 62.5875L65.7071 61.9311C65.9429 61.897 66.147 61.7488 66.2525 61.535L68.2729 57.4405C68.5392 56.9023 69.3066 56.9023 69.5724 57.4405Z" fill="white"/>
<path d="M99.7777 44.4037L101.798 48.4981C101.904 48.7119 102.108 48.8601 102.344 48.8942L106.862 49.5511C107.456 49.6371 107.693 50.3673 107.263 50.7864L103.994 53.9734C103.823 54.1399 103.745 54.3792 103.786 54.6145L104.558 59.1147C104.659 59.7064 104.038 60.1575 103.507 59.878L99.4651 57.7532C99.2543 57.6421 99.0022 57.6421 98.7909 57.7532L94.7495 59.878C94.2184 60.1575 93.5971 59.7064 93.6985 59.1147L94.4704 54.6145C94.5106 54.3798 94.4327 54.1399 94.2622 53.9734L90.9926 50.7864C90.5629 50.3673 90.8002 49.6376 91.3939 49.5511L95.9125 48.8942C96.1482 48.8601 96.3524 48.7119 96.4578 48.4981L98.4788 44.4037C98.7446 43.8654 99.5119 43.8654 99.7777 44.4037Z" fill="white"/>
<path d="M129.891 56.7062L131.911 60.8006C132.017 61.0144 132.221 61.1626 132.457 61.1967L136.975 61.8531C137.569 61.9391 137.806 62.6693 137.376 63.0884L134.107 66.2754C133.936 66.4419 133.858 66.6812 133.899 66.9165L134.671 71.4167C134.772 72.0084 134.151 72.4596 133.62 72.18L129.578 70.0551C129.367 69.9441 129.115 69.9441 128.904 70.0551L124.862 72.18C124.331 72.4596 123.71 72.0084 123.811 71.4167L124.583 66.9165C124.624 66.6817 124.546 66.4419 124.375 66.2754L121.106 63.0884C120.676 62.6693 120.913 61.9396 121.507 61.8531L126.025 61.1967C126.261 61.1626 126.465 61.0144 126.571 60.8006L128.591 56.7062C128.858 56.1679 129.625 56.1679 129.891 56.7062Z" fill="white"/>
</svg>
