<svg width="134" height="134" viewBox="0 0 134 134" fill="none" xmlns="http://www.w3.org/2000/svg">
<g clip-path="url(#clip0_121_8)">
<path d="M134 67C134 29.993 104.007 0 67 0C29.993 0 0 29.993 0 67C0 98.4062 21.6441 124.787 50.8258 132.037V87.4664H37.007V67H50.8258V58.1801C50.8258 35.3844 61.1375 24.8109 83.5406 24.8109C87.7805 24.8109 95.1086 25.6484 98.1184 26.4859V45.0156C96.548 44.8586 93.8 44.7539 90.3715 44.7539C79.3793 44.7539 75.1395 48.9152 75.1395 59.7242V67H97.0191L93.2504 87.4664H75.1133V133.503C108.299 129.498 134 101.259 134 67Z" fill="#979797"/>
</g>
<defs>
<clipPath id="clip0_121_8">
<rect width="134" height="134" fill="white"/>
</clipPath>
</defs>
</svg>
