<svg width="200" height="200" viewBox="0 0 200 200" fill="none" xmlns="http://www.w3.org/2000/svg">
<path d="M150.838 128.032L145.81 116.504L140.762 104.928C140.557 104.46 140.012 104.246 139.544 104.45L124.041 111.211C123.573 111.416 123.359 111.961 123.563 112.429L128.612 124.005L133.64 135.533C133.844 136.001 134.389 136.215 134.858 136.011L150.36 129.25C150.828 129.046 151.042 128.5 150.838 128.032ZM138.779 131.258C137.501 131.816 136.013 131.232 135.455 129.953C134.898 128.675 135.482 127.187 136.76 126.63C138.038 126.072 139.526 126.656 140.084 127.934C140.642 129.213 140.057 130.701 138.779 131.258Z" fill="white"/>
<path d="M50.0774 128.032L55.1052 116.504L60.1538 104.928C60.358 104.46 60.9033 104.246 61.3714 104.45L76.8739 111.211C77.342 111.416 77.556 111.961 77.3518 112.429L72.3032 124.005L67.2754 135.533C67.0712 136.001 66.5263 136.215 66.0578 136.011L50.5552 129.25C50.0871 129.046 49.8732 128.5 50.0774 128.032ZM62.1362 131.258C63.4143 131.816 64.9023 131.232 65.4601 129.953C66.0176 128.675 65.4334 127.187 64.1553 126.63C62.8772 126.072 61.3888 126.656 60.8314 127.934C60.274 129.213 60.8582 130.701 62.1362 131.258Z" fill="white"/>
<path d="M79.6388 143.876C78.746 143.147 78.6129 141.832 79.342 140.939L81.8348 137.886C82.564 136.993 83.8786 136.86 84.7718 137.589C85.6646 138.318 85.7974 139.633 85.0686 140.526L82.5757 143.579C81.8466 144.472 80.5316 144.605 79.6388 143.876Z" fill="white"/>
<path d="M84.1218 147.546C83.229 146.817 83.0959 145.502 83.825 144.609L87.3251 140.322C88.0542 139.429 89.3689 139.296 90.2621 140.025C91.1549 140.754 91.288 142.069 90.5589 142.962L87.0587 147.249C86.3296 148.142 85.0146 148.275 84.1218 147.546Z" fill="white"/>
<path d="M88.9918 151.286C87.9772 150.457 87.8262 148.963 88.6548 147.949L92.2381 143.56C93.0663 142.545 94.5604 142.394 95.575 143.223C96.5896 144.051 96.7406 145.545 95.912 146.56L92.3287 150.949C91.5005 151.963 90.0064 152.114 88.9918 151.286Z" fill="white"/>
<path d="M95.6761 153.465C94.6615 152.637 94.5104 151.143 95.3387 150.129L98.3081 146.492C99.1363 145.477 100.63 145.326 101.645 146.155C102.66 146.983 102.811 148.477 101.982 149.492L99.0129 153.128C98.1843 154.143 96.6906 154.294 95.6761 153.465Z" fill="white"/>
<path d="M118.519 135.743L105.024 127.546L104.921 127.602L104.241 127.62C104.043 127.625 103.841 127.628 103.639 127.628H103.638C102.5 127.628 101.488 127.549 100.595 127.479C99.9268 127.427 99.3495 127.382 98.8721 127.382C98.3017 127.382 98.1328 127.45 98.1153 127.458C96.8559 128.013 95.7239 128.994 94.6289 129.942C92.9895 131.362 91.295 132.83 89.0478 132.83C88.4932 132.83 87.9434 132.736 87.4136 132.551C86.7478 132.317 85.188 131.771 84.5177 130.086C84.0325 128.866 84.2136 127.507 85.0556 126.047C86.1173 124.205 88.3689 122.007 91.269 119.942L83.0082 119.327C80.3079 119.277 79.0538 119.658 78.6823 120.643L78.6648 120.689L73.0381 132.516C72.5911 133.456 72.4539 134.092 72.579 134.643C72.7239 135.281 73.2549 135.998 74.25 136.899L74.3556 136.995L74.4197 137.089C74.4725 137.158 75.1132 137.979 76.9535 139.504C77.0286 139.395 77.1074 139.288 77.1922 139.184L79.6851 136.131C80.6124 134.996 81.9855 134.344 83.4523 134.344C84.5688 134.344 85.6601 134.733 86.5257 135.44C87.0368 135.857 87.4494 136.363 87.749 136.929C88.1347 136.832 88.535 136.78 88.9426 136.78C90.0591 136.78 91.1504 137.169 92.016 137.875C92.6961 138.431 93.2019 139.143 93.4987 139.945C93.6891 139.924 93.8812 139.913 94.0753 139.913C95.2571 139.913 96.4121 140.325 97.3285 141.073C97.9797 141.604 98.479 142.272 98.8014 143.023C99.2342 142.906 99.6853 142.844 100.145 142.844C101.327 142.844 102.482 143.256 103.398 144.004C104.463 144.874 105.126 146.105 105.264 147.473C105.296 147.79 105.297 148.106 105.272 148.417L109.773 150.666C110.657 151.086 111.757 150.629 112.224 149.646L112.315 149.456C112.703 148.639 112.539 147.687 111.928 147.153C110.782 146.572 100.975 141.507 97.4129 139.806C96.8206 139.523 96.5692 138.814 96.8514 138.221V138.221C97.134 137.627 97.8445 137.375 98.438 137.657L115.569 146.183C116.453 146.604 117.553 146.146 118.021 145.163L118.111 144.974C118.578 143.991 118.24 142.849 117.356 142.428L101.55 134.691C100.926 134.399 100.658 133.656 100.952 133.033L100.968 132.999C101.261 132.378 102.003 132.113 102.624 132.407C106.244 134.121 115.959 139.089 117.193 139.632C117.975 139.737 118.793 139.262 119.17 138.47L119.26 138.281C119.277 138.244 119.295 138.202 119.317 138.148C119.697 137.199 119.346 136.145 118.519 135.743Z" fill="white"/>
<path d="M117.828 117.799C117.142 117.568 116.271 117.459 115.26 117.458C113.198 116.616 111 115.492 107.167 116.055C96.9298 117.562 86.0921 126.535 87.0961 129.06C87.2991 129.571 87.8833 129.775 88.3312 129.932C90.8828 130.826 93.1057 126.635 96.9952 124.919C98.5777 124.22 105.086 124.337 105.086 124.337L119.877 133.321C121.249 134.053 122.098 135.455 122.225 136.979C123.974 136.314 125.831 135.576 126.111 134.727C127.701 129.92 124.384 120.006 117.828 117.799Z" fill="white"/>
<path d="M77.9827 108.668C78.8881 109.063 79.586 109.787 79.9474 110.707C80.3083 111.627 80.2896 112.632 79.8945 113.538L78.2523 117.304C78.4671 117.196 78.7005 117.097 78.9555 117.01C79.8759 116.695 81.0192 116.548 82.5534 116.548C82.7171 116.548 82.8864 116.55 83.0609 116.553L83.1377 116.555L83.5461 116.585V113.051C83.5461 112.59 83.9192 112.217 84.3796 112.217H97.0492C97.5096 112.217 97.8827 112.59 97.8827 113.051V116.092C100.903 114.686 103.949 113.725 106.763 113.311C107.582 113.19 108.389 113.129 109.161 113.129C110.931 113.129 112.378 113.442 113.61 113.841V47.8992C113.61 45.7458 111.864 44 109.711 44H71.7182C69.5648 44 67.819 45.7458 67.819 47.8992V104.236L77.9827 108.668ZM100.976 109.435H100.717H98.7336H83.0597H80.7131H80.4533C79.6851 109.435 79.0627 108.812 79.0627 108.044C79.0627 107.276 79.6851 106.654 80.4533 106.654H100.976C101.744 106.654 102.367 107.276 102.367 108.044C102.367 108.812 101.744 109.435 100.976 109.435ZM73.2935 54.1312C73.2935 53.6708 73.667 53.2973 74.127 53.2973H107.302C107.763 53.2973 108.136 53.6704 108.136 54.1312V55.5916C108.136 56.052 107.763 56.4255 107.302 56.4255H74.127C73.6666 56.4255 73.2935 56.0524 73.2935 55.5916V54.1312ZM73.2935 60.6479C73.2935 60.1875 73.667 59.8144 74.127 59.8144H107.302C107.763 59.8144 108.136 60.1875 108.136 60.6479V62.1087C108.136 62.5691 107.763 62.9422 107.302 62.9422H74.127C73.6666 62.9422 73.2935 62.5691 73.2935 62.1087V60.6479ZM73.2935 67.1645C73.2935 66.7041 73.667 66.331 74.127 66.331H107.302C107.763 66.331 108.136 66.7041 108.136 67.1645V68.6253C108.136 69.0857 107.763 69.4592 107.302 69.4592H74.127C73.6666 69.4592 73.2935 69.0861 73.2935 68.6253V67.1645ZM73.2935 73.6812C73.2935 73.2208 73.667 72.8472 74.127 72.8472H107.302C107.763 72.8472 108.136 73.2204 108.136 73.6812V75.1419C108.136 75.6023 107.763 75.9754 107.302 75.9754H74.127C73.6666 75.9754 73.2935 75.6023 73.2935 75.1419V73.6812ZM73.2935 80.1978C73.2935 79.7374 73.667 79.3643 74.127 79.3643H107.302C107.763 79.3643 108.136 79.7374 108.136 80.1978V81.6582C108.136 82.1186 107.763 82.4921 107.302 82.4921H74.127C73.6666 82.4921 73.2935 82.119 73.2935 81.6582V80.1978ZM73.2935 86.7144C73.2935 86.254 73.667 85.8806 74.127 85.8806H107.302C107.763 85.8806 108.136 86.2536 108.136 86.7144V88.1752C108.136 88.6356 107.763 89.0092 107.302 89.0092H74.127C73.6666 89.0092 73.2935 88.636 73.2935 88.1752V86.7144ZM73.2935 93.2311C73.2935 92.7707 73.667 92.3976 74.127 92.3976H107.302C107.763 92.3976 108.136 92.7707 108.136 93.2311V94.6919C108.136 95.1523 107.763 95.5254 107.302 95.5254H74.127C73.6666 95.5254 73.2935 95.1523 73.2935 94.6919V93.2311ZM73.2935 99.7478C73.2935 99.2874 73.667 98.9142 74.127 98.9142H107.302C107.763 98.9142 108.136 99.2874 108.136 99.7478V101.209C108.136 101.669 107.763 102.042 107.302 102.042H74.127C73.6666 102.042 73.2935 101.669 73.2935 101.209V99.7478Z" fill="white"/>
<path d="M118.713 115.169C120.147 115.652 121.492 116.42 122.73 117.458L121.02 113.538C120.625 112.632 120.606 111.627 120.968 110.707C121.328 109.787 122.026 109.063 122.932 108.668L135.244 103.298V89.0143V87.4447V61.4297C135.244 61.0111 134.905 60.6721 134.486 60.6721H116.476V87.4447V103.713V114.733C117.312 114.803 118.052 114.947 118.713 115.169ZM123.08 67.1644C123.08 66.704 123.453 66.3309 123.914 66.3309H127.807C128.267 66.3309 128.641 66.704 128.641 67.1644V73.5775C128.641 74.0379 128.267 74.411 127.807 74.411H123.914C123.453 74.411 123.08 74.0379 123.08 73.5775V67.1644ZM123.08 81.7616C123.08 81.3012 123.453 80.9277 123.914 80.9277H127.807C128.267 80.9277 128.641 81.3008 128.641 81.7616V88.1747C128.641 88.6351 128.267 89.0086 127.807 89.0086H123.914C123.453 89.0086 123.08 88.6355 123.08 88.1747V81.7616ZM123.08 97.2715C123.08 96.8111 123.453 96.4379 123.914 96.4379H127.807C128.267 96.4379 128.641 96.8111 128.641 97.2715V103.685C128.641 104.145 128.267 104.518 127.807 104.518H123.914C123.453 104.518 123.08 104.145 123.08 103.685V97.2715Z" fill="white"/>
</svg>
