<svg width="201" height="200" viewBox="0 0 201 200" fill="none" xmlns="http://www.w3.org/2000/svg">
<path d="M85.8267 86.1957C86.5863 82.3583 84.0913 78.6315 80.2538 77.8719C76.4163 77.1122 72.6896 79.6072 71.9299 83.4447C71.1703 87.2822 73.6653 91.0089 77.5028 91.7686C81.3403 92.5282 85.067 90.0332 85.8267 86.1957Z" fill="white"/>
<path d="M75.1657 152H74.1948C72.8652 152 71.7876 150.922 71.7876 149.593V120.863C71.7876 119.533 72.8652 118.456 74.1948 118.456H75.1657C76.4953 118.456 77.5729 119.533 77.5729 120.863V149.593C77.5733 150.922 76.4953 152 75.1657 152Z" fill="white"/>
<path d="M83.5463 152H82.5754C81.2458 152 80.1682 150.922 80.1682 149.593V120.863C80.1682 119.533 81.2458 118.456 82.5754 118.456H83.5463C84.8759 118.456 85.9535 119.533 85.9535 120.863V149.593C85.9539 150.922 84.8759 152 83.5463 152Z" fill="white"/>
<path d="M118.819 152H117.848C116.518 152 115.441 150.922 115.441 149.593V120.863C115.441 119.533 116.518 118.456 117.848 118.456H118.819C120.149 118.456 121.226 119.533 121.226 120.863V149.593C121.227 150.922 120.149 152 118.819 152Z" fill="white"/>
<path d="M127.2 152H126.229C124.899 152 123.821 150.922 123.821 149.593V120.863C123.821 119.533 124.899 118.456 126.229 118.456H127.2C128.529 118.456 129.607 119.533 129.607 120.863V149.593C129.607 150.922 128.529 152 127.2 152Z" fill="white"/>
<path d="M85.9538 123.622H71.7876V98.4556C71.7876 96.2504 73.5752 94.4631 75.78 94.4631H81.9611C84.1662 94.4631 85.9535 96.2508 85.9535 98.4556L85.9538 123.622Z" fill="white"/>
<path d="M122.524 77.7666C118.612 77.7666 115.441 80.9379 115.441 84.8495C115.441 88.7612 118.612 91.9325 122.524 91.9325C126.436 91.9325 129.607 88.7612 129.607 84.8495C129.607 80.9379 126.436 77.7666 122.524 77.7666Z" fill="white"/>
<path d="M115.441 123.622H129.607V98.4556C129.607 96.2504 127.819 94.4631 125.615 94.4631H119.433C117.228 94.4631 115.441 96.2508 115.441 98.4556V123.622Z" fill="white"/>
<path d="M107.932 109.887C106.639 108.73 106.529 106.744 107.686 105.451L116.211 95.9268C117.368 94.6341 119.354 94.5244 120.646 95.6812C121.939 96.8381 122.049 98.824 120.892 100.116L112.367 109.641C111.21 110.933 109.224 111.043 107.932 109.887Z" fill="white"/>
<path d="M95.9002 109.645C95.6712 108.138 96.0429 106.632 96.9467 105.404C96.9989 105.334 97.0529 105.264 97.1081 105.196C97.0976 105.193 97.0867 105.19 97.0755 105.189L92.907 104.556L85.1839 95.9268C84.027 94.6341 82.0412 94.5244 80.7488 95.6812C79.456 96.8381 79.3464 98.824 80.5032 100.116L89.0283 109.641C89.664 110.351 90.5497 110.704 91.4336 110.686L96.4281 111.444C96.451 111.448 96.4732 111.448 96.4946 111.446C96.1999 110.887 95.9967 110.28 95.9002 109.645Z" fill="white"/>
<path d="M98.4373 109.259C98.1767 107.544 99.3557 105.943 101.071 105.682L109.484 104.404C111.199 104.144 112.801 105.323 113.061 107.038C113.322 108.753 112.143 110.354 110.428 110.615L102.014 111.893C100.299 112.154 98.6978 110.975 98.4373 109.259Z" fill="white"/>
<path d="M47.8321 94.2737C37.724 94.2737 29.5 86.8104 29.5 77.6368C29.5 68.4633 37.7236 61 47.8321 61C57.9406 61 66.1642 68.4633 66.1642 77.6368C66.1642 86.8104 57.9402 94.2737 47.8321 94.2737ZM47.8321 63.566C39.1388 63.566 32.066 69.8781 32.066 77.6368C32.066 85.3956 39.1388 91.7077 47.8321 91.7077C56.5254 91.7077 63.5982 85.3952 63.5982 77.6368C63.5982 69.8784 56.5254 63.566 47.8321 63.566Z" fill="white"/>
<path d="M47.8323 78.9199C47.5905 78.9199 47.3498 78.8516 47.1391 78.7168C46.7697 78.4795 46.5474 78.0698 46.5493 77.6309L46.574 72.3593C46.5774 71.6526 47.1511 71.0823 47.857 71.0823C47.8589 71.0823 47.8608 71.0823 47.863 71.0823C48.5716 71.0857 49.143 71.6628 49.1397 72.3713L49.1243 75.6229L50.7264 74.8794C51.37 74.5802 52.1318 74.8607 52.4299 75.5031C52.7284 76.1459 52.4491 76.9089 51.8063 77.207L48.3714 78.8012C48.2002 78.8805 48.0159 78.9199 47.8323 78.9199Z" fill="white"/>
<path d="M47.8321 88.5731C41.802 88.5731 36.8964 83.6672 36.8964 77.6371C36.8964 71.607 41.8024 66.7014 47.8321 66.7014C53.8622 66.7014 58.7681 71.6073 58.7681 77.6371C58.7681 83.6672 53.8622 88.5731 47.8321 88.5731ZM47.8321 69.2674C43.2171 69.2674 39.462 73.0221 39.462 77.6374C39.462 82.2527 43.2168 86.0075 47.8321 86.0075C52.4474 86.0075 56.2025 82.2527 56.2025 77.6374C56.2025 73.0221 52.4474 69.2674 47.8321 69.2674Z" fill="white"/>
<path d="M66.9674 95.563L60.2757 88.1838L50.4845 92.7782L66.5506 96.3008C66.9768 96.3943 67.2674 95.8803 66.9674 95.563Z" fill="white"/>
<path d="M153.562 94.2737C143.454 94.2737 135.23 86.8104 135.23 77.6368C135.23 68.4633 143.454 61 153.562 61C163.671 61 171.895 68.4633 171.895 77.6368C171.895 86.8104 163.671 94.2737 153.562 94.2737ZM153.562 63.566C144.869 63.566 137.796 69.8781 137.796 77.6368C137.796 85.3956 144.869 91.7077 153.562 91.7077C162.256 91.7077 169.329 85.3952 169.329 77.6368C169.329 69.8784 162.256 63.566 153.562 63.566Z" fill="white"/>
<path d="M134.427 95.563L141.119 88.1838L150.91 92.7782L134.844 96.3008C134.418 96.3943 134.127 95.8803 134.427 95.563Z" fill="white"/>
<path d="M153.562 88.5731C147.532 88.5731 142.627 83.6672 142.627 77.6371C142.627 71.607 147.533 66.7014 153.562 66.7014C159.593 66.7014 164.498 71.6073 164.498 77.6371C164.499 83.6672 159.593 88.5731 153.562 88.5731ZM153.562 69.2674C148.947 69.2674 145.192 73.0221 145.192 77.6374C145.192 82.2527 148.947 86.0075 153.562 86.0075C158.178 86.0075 161.933 82.2527 161.933 77.6374C161.933 73.0221 158.178 69.2674 153.562 69.2674Z" fill="white"/>
<path d="M152.62 80.9898C152.294 80.9898 151.968 80.8662 151.72 80.621L148.822 77.769C148.317 77.2718 148.311 76.4597 148.807 75.9547C149.305 75.4493 150.117 75.4436 150.622 75.94L152.676 77.9616L156.564 74.5966C157.1 74.1325 157.91 74.1918 158.374 74.7272C158.837 75.263 158.779 76.0733 158.243 76.537L153.459 80.677C153.217 80.8861 152.918 80.9898 152.62 80.9898Z" fill="white"/>
</svg>
