<svg width="134" height="134" viewBox="0 0 134 134" fill="none" xmlns="http://www.w3.org/2000/svg">
<path d="M34.2504 125.25H9.93672V46.9699H34.2504V125.25ZM22.0805 36.2918C14.3074 36.2918 8 29.8535 8 22.0805C8 18.3461 9.48347 14.7647 12.1241 12.1241C14.7647 9.48347 18.3461 8 22.0805 8C25.8148 8 29.3963 9.48347 32.0369 12.1241C34.6775 14.7647 36.1609 18.3461 36.1609 22.0805C36.1609 29.8535 29.8535 36.2918 22.0805 36.2918ZM125.224 125.25H100.963V87.1437C100.963 78.0621 100.779 66.4156 88.3215 66.4156C75.6805 66.4156 73.7437 76.2824 73.7437 86.4895V125.25H49.4562V46.9699H72.7754V57.648H73.1156C76.3609 51.4977 84.291 45.007 96.1207 45.007C120.722 45.007 125.25 61.2074 125.25 82.2496V125.25H125.224Z" fill="#979797"/>
</svg>
