<svg width="592" height="337" viewBox="0 0 592 337" fill="none" xmlns="http://www.w3.org/2000/svg">
<path d="M209.5 39.5L281 1C288.6 9.8 283.5 19.6667 280 23.5C273 30.3333 258.1 44.8 254.5 48C250.9 51.2 253 55 254.5 56.5L341 142.5C331.8 152.1 321.5 147.167 317.5 143.5L269 95.5L265 99.5L325 159C316.2 168.6 306.333 164 302.5 160.5L253.5 111.5L249.5 115.5L308.5 175C299.3 183.8 289 178.667 285 175L237.5 127.5L233.5 131.5L292 191C282 200.2 271.5 193.5 267.5 189C249.667 171.333 212 134 204 126C196 118 194 108.667 194 105V65C194 50.2 204.333 41.8333 209.5 39.5Z" stroke="#1C417E"/>
<path d="M52 244L1 336H30L68.5 268L78.5 285.5H67.5L53.5 311H92L106.5 336H135.5C125 316.333 100.4 270.4 86 244C71.6 217.6 57.3333 233 52 244Z" stroke="#1C417E"/>
<path d="M169.5 231H219C219 251.4 210 255.833 205.5 255.5H177.5C168.833 256 151.5 262.6 151.5 285C151.5 307.4 168.833 312.333 177.5 312H205.5C217.9 312 219.667 328 219 336H169.5C156 333.667 128.9 319.6 128.5 282C128.1 244.4 155.667 232.333 169.5 231Z" stroke="#1C417E"/>
<path d="M243 231H317.5C317.5 251.4 308.5 255.833 304 255.5H256V270H313.5V295.5H256V312H304C316.8 312 318.333 328 317.5 336H244C235.2 336 232.667 329 232.5 325.5V241C232.5 233 239.5 231 243 231Z" stroke="#1C417E"/>
<path d="M344.5 231H419.5C419.5 250.6 410.833 255.5 406.5 255.5H357V270H415.5V295.5H357V336H334V241.5C334 233.1 341 231 344.5 231Z" stroke="#1C417E"/>
<path d="M458 231H434.5V336H458V231Z" stroke="#1C417E"/>
<path d="M512 231H560.5C560.5 249.4 552.833 255 549 255.5H516C508.333 256.5 493 263.8 493 285C493 306.2 508.333 311.833 516 312H549C560.6 312 561.5 328 560.5 336H512C509.5 336 470 327 469.5 282C469.1 246 497.667 233 512 231Z" stroke="#1C417E"/>
<circle cx="581" cy="239.5" r="9.5" stroke="#1C417E" stroke-width="2"/>
<path d="M576.5 245.413V234H581.003C581.865 234 582.6 234.154 583.21 234.463C583.823 234.767 584.289 235.2 584.608 235.761C584.932 236.318 585.093 236.974 585.093 237.728C585.093 238.486 584.93 239.138 584.603 239.684C584.276 240.227 583.802 240.643 583.182 240.933C582.565 241.222 581.818 241.367 580.941 241.367H577.927V239.428H580.551C581.012 239.428 581.395 239.365 581.699 239.238C582.004 239.112 582.231 238.923 582.379 238.67C582.532 238.417 582.608 238.103 582.608 237.728C582.608 237.349 582.532 237.03 582.379 236.77C582.231 236.51 582.002 236.313 581.694 236.179C581.389 236.041 581.005 235.973 580.54 235.973H578.913V245.413H576.5ZM582.663 240.219L585.5 245.413H582.836L580.061 240.219H582.663Z" fill="#1C417E"/>
<path d="M287 28.5C293.4 22.1 294.333 12.1667 294 8C311.5 17.5 348.5 37.7 356.5 42.5C364.5 47.3 366.5 58.8333 366.5 64V106.5C366.5 114.1 362.833 120 361 122L346.5 137.5L286 77.5L307.5 56C310.3 53.2 308.667 50.5 307.5 49.5L287 28.5Z" stroke="#2BB673"/>
</svg>
