<svg width="591" height="335" viewBox="0 0 591 335" fill="none" xmlns="http://www.w3.org/2000/svg">
<path d="M208.5 38.5L280 0C287.6 8.8 282.5 18.6667 279 22.5C272 29.3333 257.1 43.8 253.5 47C249.9 50.2 252 54 253.5 55.5L340 141.5C330.8 151.1 320.5 146.167 316.5 142.5L268 94.5L264 98.5L324 158C315.2 167.6 305.333 163 301.5 159.5L252.5 110.5L248.5 114.5L307.5 174C298.3 182.8 288 177.667 284 174L236.5 126.5L232.5 130.5L291 190C281 199.2 270.5 192.5 266.5 188C248.667 170.333 211 133 203 125C195 117 193 107.667 193 104V64C193 49.2 203.333 40.8333 208.5 38.5Z" fill="#1C417E"/>
<path d="M51 243L0 335H29L67.5 267L77.5 284.5H66.5L52.5 310H91L105.5 335H134.5C124 315.333 99.4 269.4 85 243C70.6 216.6 56.3333 232 51 243Z" fill="#1C417E"/>
<path d="M168.5 230H218C218 250.4 209 254.833 204.5 254.5H176.5C167.833 255 150.5 261.6 150.5 284C150.5 306.4 167.833 311.333 176.5 311H204.5C216.9 311 218.667 327 218 335H168.5C155 332.667 127.9 318.6 127.5 281C127.1 243.4 154.667 231.333 168.5 230Z" fill="#1C417E"/>
<path d="M242 230H316.5C316.5 250.4 307.5 254.833 303 254.5H255V269H312.5V294.5H255V311H303C315.8 311 317.333 327 316.5 335H243C234.2 335 231.667 328 231.5 324.5V240C231.5 232 238.5 230 242 230Z" fill="#1C417E"/>
<path d="M343.5 230H418.5C418.5 249.6 409.833 254.5 405.5 254.5H356V269H414.5V294.5H356V335H333V240.5C333 232.1 340 230 343.5 230Z" fill="#1C417E"/>
<path d="M457 230H433.5V335H457V230Z" fill="#1C417E"/>
<path d="M511 230H559.5C559.5 248.4 551.833 254 548 254.5H515C507.333 255.5 492 262.8 492 284C492 305.2 507.333 310.833 515 311H548C559.6 311 560.5 327 559.5 335H511C508.5 335 469 326 468.5 281C468.1 245 496.667 232 511 230Z" fill="#1C417E"/>
<circle cx="580" cy="238.5" r="9.5" stroke="#1C417E" stroke-width="2"/>
<path d="M575.5 244.413V233H580.003C580.865 233 581.6 233.154 582.21 233.463C582.823 233.767 583.289 234.2 583.608 234.761C583.932 235.318 584.093 235.974 584.093 236.728C584.093 237.486 583.93 238.138 583.603 238.684C583.276 239.227 582.802 239.643 582.182 239.933C581.565 240.222 580.818 240.367 579.941 240.367H576.927V238.428H579.551C580.012 238.428 580.395 238.365 580.699 238.238C581.004 238.112 581.231 237.923 581.379 237.67C581.532 237.417 581.608 237.103 581.608 236.728C581.608 236.349 581.532 236.03 581.379 235.77C581.231 235.51 581.002 235.313 580.694 235.179C580.389 235.041 580.005 234.973 579.54 234.973H577.913V244.413H575.5ZM581.663 239.219L584.5 244.413H581.836L579.061 239.219H581.663Z" fill="#1C417E"/>
<path d="M286 27.5C292.4 21.1 293.333 11.1667 293 7C310.5 16.5 347.5 36.7 355.5 41.5C363.5 46.3 365.5 57.8333 365.5 63V105.5C365.5 113.1 361.833 119 360 121L345.5 136.5L285 76.5L306.5 55C309.3 52.2 307.667 49.5 306.5 48.5L286 27.5Z" fill="#2BB673"/>
</svg>
