<svg width="945" height="1056" viewBox="0 0 945 1056" fill="none" xmlns="http://www.w3.org/2000/svg">
<path d="M540.652 1023.58C497.328 1061.4 445.559 1062.09 408.288 1025.71C285.336 905.809 163.432 784.748 41.6793 663.635C16.3563 638.443 4.87267 606.015 4.33802 570.597C3.22244 492.717 2.20715 414.785 2.95314 336.893C3.42155 285.669 25.288 244.268 70.8573 218.861C198.491 147.732 326.737 77.7067 454.473 6.7283C465.953 0.363493 471.401 2.44098 478.561 12.4569C501.768 44.8581 498.289 82.114 466.753 114.422C420.523 161.77 373.685 208.569 327.202 255.667C303.81 279.318 303.779 282.236 327.733 305.928C477.235 453.828 626.786 601.676 776.288 749.575C796.697 769.768 796.112 772.54 769.271 784.389C731.644 801.039 693.15 792.839 659.473 759.702C580.015 681.582 500.958 603.056 421.6 524.835C415.118 518.438 410.167 507.753 397.413 519.258C384.358 531.017 387.069 537.742 398.31 548.687C495.945 644.197 593.03 740.214 690.265 836.129C710.876 856.421 710.292 859.444 684.155 871.088C647.131 887.583 608.036 879.89 576.182 848.602C496.117 769.933 416.352 690.859 336.387 612.088C329.247 605.091 323.635 593.404 310.694 607.175C300.951 617.503 300.686 623.19 311.016 633.135C355.626 676.163 399.437 720.052 443.547 763.636C498.394 817.817 552.742 872.505 608.388 925.775C624.337 941.016 619.699 947.235 603.148 955.344C564.38 974.366 522.924 967.293 488.487 933.456C409.587 855.936 331.187 777.91 252.288 700.44C245.299 693.593 240.322 678.933 224.973 693.726C210.174 708.012 219.977 714.489 229.093 723.486C325.113 818.252 420.932 913.17 517.102 1007.78C523.584 1014.18 532.415 1018.15 540.652 1023.58Z" fill="black" fill-opacity="0.02"/>
<path d="M545.661 2.57422C562.837 5.3293 575.383 15.6621 589.217 22.9675C680.05 71.0753 770.534 119.84 861.516 167.695C913.369 194.977 938.306 237.983 939.036 295.488C939.978 369.998 940.317 444.462 940.555 518.977C940.662 558.222 927.957 592.671 900.068 620.98C881.275 640.072 862.026 658.765 843.841 678.406C834.798 688.177 828.824 690.178 818.037 679.532C718.215 580.414 617.993 481.751 517.321 383.493C507.042 373.498 509.523 368.249 518.071 359.79C551.913 326.158 584.894 291.627 618.838 258.095C633.935 243.153 634.258 231.126 618.261 216.187C584.695 184.659 552.678 151.511 519.412 119.679C509.639 110.334 505.12 104.074 516.36 91.7236C538.739 67.0229 543.562 35.2927 545.661 2.57422Z" fill="black" fill-opacity="0.02"/>
</svg>
