<svg width="134" height="134" viewBox="0 0 134 134" fill="none" xmlns="http://www.w3.org/2000/svg">
<path d="M73.1719 130.273C86.5312 113.519 117 72.9133 117 50.105C117 22.4429 94.6042 0 67 0C39.3958 0 17 22.4429 17 50.105C17 72.9133 47.4687 113.519 60.8281 130.273C64.0312 134.266 69.9687 134.266 73.1719 130.273ZM67 33.4034C71.4203 33.4034 75.6595 35.163 78.7851 38.2952C81.9107 41.4273 83.6667 45.6755 83.6667 50.105C83.6667 54.5346 81.9107 58.7827 78.7851 61.9149C75.6595 65.0471 71.4203 66.8067 67 66.8067C62.5797 66.8067 58.3405 65.0471 55.2149 61.9149C52.0893 58.7827 50.3333 54.5346 50.3333 50.105C50.3333 45.6755 52.0893 41.4273 55.2149 38.2952C58.3405 35.163 62.5797 33.4034 67 33.4034Z" fill="#1C417E"/>
</svg>
