<svg width="134" height="134" viewBox="0 0 134 134" fill="none" xmlns="http://www.w3.org/2000/svg">
<g clip-path="url(#clip0_99_93)">
<path d="M43.1574 6.43832C41.1422 1.57035 35.8293 -1.02066 30.752 0.366448L7.7207 6.6477C3.1668 7.90395 0 12.0391 0 16.75C0 81.4993 52.5008 134 117.25 134C121.961 134 126.096 130.833 127.352 126.279L133.634 103.248C135.021 98.1708 132.43 92.8579 127.562 90.8426L102.437 80.3739C98.1707 78.5942 93.2242 79.8243 90.3191 83.4098L79.7457 96.3126C61.3207 87.5973 46.4027 72.6793 37.6875 54.2543L50.5902 43.7071C54.1758 40.7758 55.4059 35.8555 53.6262 31.5895L43.1574 6.4645V6.43832Z" fill="#1C417E"/>
</g>
<defs>
<clipPath id="clip0_99_93">
<rect width="134" height="134" fill="white"/>
</clipPath>
</defs>
</svg>
