<svg width="134" height="134" viewBox="0 0 134 134" fill="none" xmlns="http://www.w3.org/2000/svg">
<g clip-path="url(#clip0_121_10)">
<path d="M120.234 39.7027C120.312 40.8805 120.312 42.0844 120.312 43.2621C120.312 79.5625 92.6746 121.411 42.1629 121.411C26.5906 121.411 12.1438 116.91 0 109.084C2.19844 109.346 4.34453 109.425 6.62148 109.425C19.4719 109.425 31.2754 105.08 40.7234 97.6996C28.6582 97.4379 18.5297 89.534 15.0488 78.6465C16.75 78.9082 18.4512 79.0652 20.2309 79.0652C22.691 79.0652 25.1512 78.725 27.4543 78.123C14.8656 75.5844 5.44375 64.5137 5.44375 51.166V50.8258C9.10781 52.8672 13.3477 54.1496 17.8492 54.3066C10.4426 49.3863 5.60078 40.959 5.60078 31.4324C5.60078 26.3289 6.96172 21.6441 9.34336 17.5613C22.8742 34.2328 43.1836 45.1203 65.9793 46.298C65.5605 44.2566 65.2988 42.1367 65.2988 40.0168C65.2988 24.8895 77.5473 12.5625 92.7531 12.5625C100.657 12.5625 107.802 15.8863 112.827 21.2254C119.03 20.0477 124.997 17.7445 130.257 14.6039C128.216 20.9898 123.871 26.3289 118.192 29.7312C123.714 29.1293 129.08 27.6113 134 25.4914C130.257 30.9352 125.573 35.777 120.234 39.7027Z" fill="#979797"/>
</g>
<defs>
<clipPath id="clip0_121_10">
<rect width="134" height="134" fill="white"/>
</clipPath>
</defs>
</svg>
