<svg width="134" height="134" viewBox="0 0 134 134" fill="none" xmlns="http://www.w3.org/2000/svg">
<path d="M127.415 35.9816C125.95 30.4681 121.646 26.141 116.179 24.6753C106.268 22 66.5337 22 66.5337 22C66.5337 22 26.799 22 16.8885 24.6753C11.4215 26.141 7.11771 30.4681 5.65208 35.9816C3 45.9618 3 66.7597 3 66.7597C3 66.7597 3 87.5576 5.65208 97.5379C7.11771 103.051 11.4215 107.192 16.8885 108.658C26.799 111.333 66.5337 111.333 66.5337 111.333C66.5337 111.333 106.268 111.333 116.179 108.658C121.646 107.192 125.95 103.028 127.415 97.5379C130.067 87.5576 130.067 66.7597 130.067 66.7597C130.067 66.7597 130.067 45.9618 127.415 35.9816ZM53.5524 85.65V47.8694L86.75 66.7597L53.5524 85.65Z" fill="#979797"/>
</svg>
